<svg width="200" height="200" viewBox="0 0 200 200" fill="none" xmlns="http://www.w3.org/2000/svg">
  <defs>
    <linearGradient id="paint0_linear" x1="20" y1="20" x2="180" y2="180" gradientUnits="userSpaceOnUse">
      <stop stop-color="#3B82F6"/>
      <stop offset="1" stop-color="#06B6D4"/>
    </linearGradient>
    <filter id="filter0_d" x="0" y="0" width="200" height="200" filterUnits="userSpaceOnUse" color-interpolation-filters="sRGB">
      <feFlood flood-opacity="0" result="BackgroundImageFix"/>
      <feColorMatrix in="SourceAlpha" type="matrix" values="0 0 0 0 0 0 0 0 0 0 0 0 0 0 0 0 0 0 127 0"/>
      <feOffset dy="4"/>
      <feGaussianBlur stdDeviation="4"/>
      <feColorMatrix type="matrix" values="0 0 0 0 0 0 0 0 0 0 0 0 0 0 0 0 0 0 0.1 0"/>
      <feBlend mode="normal" in2="BackgroundImageFix" result="effect1_dropShadow"/>
      <feBlend mode="normal" in="SourceGraphic" in2="effect1_dropShadow" result="shape"/>
    </filter>
  </defs>
  <g filter="url(#filter0_d)">
    <path d="M40 50C40 44.4772 44.4772 40 50 40H60L100 140L140 40H150C155.523 40 160 44.4772 160 50V60L100 160L40 60V50Z" fill="url(#paint0_linear)"/>
    <path d="M60 70C60 64.4772 64.4772 60 70 60H80L100 110L120 60H130C135.523 60 140 64.4772 140 70V80L100 130L60 80V70Z" fill="white" fill-opacity="0.2"/>
    <path d="M45 45L55 45" stroke="url(#paint0_linear)" stroke-width="4" stroke-linecap="round"/>
    <path d="M145 45L155 45" stroke="url(#paint0_linear)" stroke-width="4" stroke-linecap="round"/>
  </g>
</svg>
